<mxfile host="app.diagrams.net" modified="2023-12-03T17:40:17.794Z" agent="Mozilla/5.0 (Macintosh; Intel Mac OS X 10_15_7) AppleWebKit/537.36 (KHTML, like Gecko) Chrome/116.0.0.0 Safari/537.36" etag="LgVCiuRqIjeOQhR20wS8" version="22.1.5" type="google">
  <diagram name="Trang-1" id="VJiNE9RDhKIC1pWFMdXq">
    <mxGraphModel grid="1" page="1" gridSize="10" guides="1" tooltips="1" connect="1" arrows="1" fold="1" pageScale="1" pageWidth="827" pageHeight="1169" math="0" shadow="0">
      <root>
        <mxCell id="0" />
        <mxCell id="1" parent="0" />
        <mxCell id="sCturLYhXN2UjFlmsiVd-8" style="edgeStyle=orthogonalEdgeStyle;rounded=0;orthogonalLoop=1;jettySize=auto;html=1;entryX=0;entryY=0.5;entryDx=0;entryDy=0;" edge="1" parent="1" source="sCturLYhXN2UjFlmsiVd-1" target="sCturLYhXN2UjFlmsiVd-3">
          <mxGeometry relative="1" as="geometry" />
        </mxCell>
        <mxCell id="sCturLYhXN2UjFlmsiVd-1" value="Training Set" style="shape=cylinder3;whiteSpace=wrap;html=1;boundedLbl=1;backgroundOutline=1;size=15;" vertex="1" parent="1">
          <mxGeometry x="40" y="100" width="60" height="80" as="geometry" />
        </mxCell>
        <mxCell id="sCturLYhXN2UjFlmsiVd-10" style="edgeStyle=orthogonalEdgeStyle;rounded=0;orthogonalLoop=1;jettySize=auto;html=1;entryX=0.5;entryY=1;entryDx=0;entryDy=0;" edge="1" parent="1" source="sCturLYhXN2UjFlmsiVd-2" target="sCturLYhXN2UjFlmsiVd-4">
          <mxGeometry relative="1" as="geometry" />
        </mxCell>
        <mxCell id="sCturLYhXN2UjFlmsiVd-2" value="Validation Set" style="shape=cylinder3;whiteSpace=wrap;html=1;boundedLbl=1;backgroundOutline=1;size=15;" vertex="1" parent="1">
          <mxGeometry x="40" y="240" width="60" height="80" as="geometry" />
        </mxCell>
        <mxCell id="sCturLYhXN2UjFlmsiVd-9" style="edgeStyle=orthogonalEdgeStyle;rounded=0;orthogonalLoop=1;jettySize=auto;html=1;" edge="1" parent="1" source="sCturLYhXN2UjFlmsiVd-3" target="sCturLYhXN2UjFlmsiVd-4">
          <mxGeometry relative="1" as="geometry" />
        </mxCell>
        <mxCell id="sCturLYhXN2UjFlmsiVd-3" value="&lt;font style=&quot;font-size: 15px;&quot;&gt;Model&lt;/font&gt;" style="rounded=1;whiteSpace=wrap;html=1;" vertex="1" parent="1">
          <mxGeometry x="184" y="110" width="120" height="60" as="geometry" />
        </mxCell>
        <mxCell id="sCturLYhXN2UjFlmsiVd-11" style="edgeStyle=orthogonalEdgeStyle;rounded=0;orthogonalLoop=1;jettySize=auto;html=1;entryX=0;entryY=0.5;entryDx=0;entryDy=0;" edge="1" parent="1" source="sCturLYhXN2UjFlmsiVd-4" target="sCturLYhXN2UjFlmsiVd-5">
          <mxGeometry relative="1" as="geometry" />
        </mxCell>
        <mxCell id="sCturLYhXN2UjFlmsiVd-12" style="edgeStyle=orthogonalEdgeStyle;rounded=0;orthogonalLoop=1;jettySize=auto;html=1;entryX=0;entryY=0.5;entryDx=0;entryDy=0;" edge="1" parent="1" source="sCturLYhXN2UjFlmsiVd-4" target="sCturLYhXN2UjFlmsiVd-6">
          <mxGeometry relative="1" as="geometry" />
        </mxCell>
        <mxCell id="sCturLYhXN2UjFlmsiVd-4" value="&lt;font style=&quot;font-size: 15px;&quot;&gt;Trained model&lt;/font&gt;" style="rounded=1;whiteSpace=wrap;html=1;" vertex="1" parent="1">
          <mxGeometry x="310" y="180" width="120" height="60" as="geometry" />
        </mxCell>
        <mxCell id="sCturLYhXN2UjFlmsiVd-13" style="edgeStyle=orthogonalEdgeStyle;rounded=0;orthogonalLoop=1;jettySize=auto;html=1;entryX=0.5;entryY=0;entryDx=0;entryDy=0;" edge="1" parent="1" source="sCturLYhXN2UjFlmsiVd-5" target="sCturLYhXN2UjFlmsiVd-3">
          <mxGeometry relative="1" as="geometry">
            <Array as="points">
              <mxPoint x="580" y="50" />
              <mxPoint x="244" y="50" />
            </Array>
          </mxGeometry>
        </mxCell>
        <mxCell id="sCturLYhXN2UjFlmsiVd-5" value="&lt;font style=&quot;font-size: 15px;&quot;&gt;Loss train&lt;/font&gt;" style="rounded=1;whiteSpace=wrap;html=1;" vertex="1" parent="1">
          <mxGeometry x="470" y="100" width="120" height="60" as="geometry" />
        </mxCell>
        <mxCell id="sCturLYhXN2UjFlmsiVd-14" style="edgeStyle=orthogonalEdgeStyle;rounded=0;orthogonalLoop=1;jettySize=auto;html=1;" edge="1" parent="1" source="sCturLYhXN2UjFlmsiVd-6" target="sCturLYhXN2UjFlmsiVd-7">
          <mxGeometry relative="1" as="geometry" />
        </mxCell>
        <mxCell id="sCturLYhXN2UjFlmsiVd-6" value="&lt;font style=&quot;font-size: 15px;&quot;&gt;Loss train&lt;/font&gt;" style="rounded=1;whiteSpace=wrap;html=1;" vertex="1" parent="1">
          <mxGeometry x="470" y="240" width="120" height="60" as="geometry" />
        </mxCell>
        <mxCell id="sCturLYhXN2UjFlmsiVd-7" value="&lt;font style=&quot;font-size: 15px;&quot;&gt;Result model&lt;/font&gt;" style="rounded=1;whiteSpace=wrap;html=1;" vertex="1" parent="1">
          <mxGeometry x="630" y="240" width="120" height="60" as="geometry" />
        </mxCell>
      </root>
    </mxGraphModel>
  </diagram>
</mxfile>
